<?xml version="1.0" encoding="UTF-8"?>
<svg id="Capa_1" xmlns="http://www.w3.org/2000/svg" version="1.1" viewBox="0 0 566.93 566.93">
  <!-- Generator: Adobe Illustrator 30.0.0, SVG Export Plug-In . SVG Version: 2.1.1 Build 123)  -->
  <path d="M236.46,15.65l26.36,3.44c140.13,25.62,214.57,180.9,145.71,307.28-1.21,2.22-11.74,18-11,18.8,7.06.92,13.35,4.6,18.84,8.89,37.44,42.47,87.22,80.67,123.43,123.43,6.27,7.41,9.1,14.2,11.48,23.57v11.51c-3.98,20.56-18.12,34.76-38.7,38.71h-11.5c-9.36-2.38-16.15-5.21-23.56-11.48-43.12-36.53-81.62-86.75-124.46-124.49-3.68-5.26-6.95-11.33-7.82-17.81-.8-.74-16.57,9.8-18.8,11-126.68,68.65-281.34-5.33-307.21-145.74l-3.44-27.42c.3-6.93-.41-14.01,0-20.92C22.07,107.59,106.49,22.31,213.46,15.65h23.01ZM381.5,225.17c0-86.33-69.97-156.32-156.28-156.32S68.94,138.84,68.94,225.17s69.97,156.32,156.28,156.32,156.28-69.99,156.28-156.32Z"/>
</svg>