<?xml version="1.0" encoding="UTF-8"?>
<svg id="Capa_1" xmlns="http://www.w3.org/2000/svg" version="1.1" viewBox="0 0 566.93 566.93">
  <!-- Generator: Adobe Illustrator 30.0.0, SVG Export Plug-In . SVG Version: 2.1.1 Build 123)  -->
  <path d="M409.83,160.2h104.24c1.41,0,9.33,5.48,10.49,7.56,1.96,3.53,2.34,8.93,2.53,12.96,4.57,96.95-4.56,199.16-1.14,296.69-9.7,45.21-44.29,75.46-90.6,78.47-99.74,6.5-206.54-5.01-307.01-.1-45.23-3.97-81.83-37.63-87.91-82.81,4.25-96.16-5.16-196.65-.66-292.25.19-4.03.57-9.43,2.53-12.96,1.16-2.08,9.08-7.56,10.49-7.56h104.24v-35.29c0-64.98,70.03-118.45,132.22-115.81,57.58,2.45,120.57,55.81,120.57,115.81v35.29ZM375.36,160.2v-38.58c0-6.75-8.12-25.99-11.81-32.51-34.94-61.61-126.73-61.12-160.82,1.04-3.44,6.27-11.21,25.08-11.21,31.47v38.58h183.85ZM157.04,194.67h-83.72v274.95c0,21.3,28.87,49.36,50.21,51.57l315.1.21c23.26,1.11,54.92-29.59,54.92-51.78V194.67h-83.72v45.14c0,1.45-5.47,9.29-7.57,10.49-6.41,3.64-17.93,2.75-22.7-3.19-.82-1.03-4.19-8.34-4.19-8.94v-43.5h-183.85v43.5c0,7.4-9.98,14.7-17.24,14.76-6.52.05-17.24-6.72-17.24-13.11v-45.14Z"/>
</svg>