<?xml version="1.0" encoding="UTF-8"?>
<svg id="Capa_1" xmlns="http://www.w3.org/2000/svg" version="1.1" viewBox="0 0 409.8 678.06">
  <!-- Generator: Adobe Illustrator 30.0.0, SVG Export Plug-In . SVG Version: 2.1.1 Build 123)  -->
  <defs>
    <style>
      .st0 {
        fill: #fff;
      }
    </style>
  </defs>
  <path class="st0" d="M78.02,2.37c79.65-7.1,168.02,4.48,248.59-.5,43.12.88,79.16,33.03,83.2,76.12l-.07,523.52c-4.3,35.56-30.33,64.79-65.33,72.65-84.92-.11-176.54,7.13-261.18,2.12-45.09-2.67-78.66-31.92-83.21-77.53L.09,76.65C5.5,35.15,36.44,6.08,78.02,2.37ZM75.12,35.03c-23.81,3.23-41.91,23.99-43.32,47.71.15,173.6-2.51,347.85,1.34,521.28,5.07,21.15,22.53,37.28,44.46,39.47,82.24-4.27,170.28,5.73,251.84.08,29.69-2.06,47.91-24.4,49.07-53.35-5.13-163.9,6.63-331.75,0-495.19-.86-21.29-3.39-37.5-21.52-51-18.89-14.07-43.73-8.45-65.75-9.1l-18.66,25.44-132.37,1.3c-6.6-1.3-15.14-22.48-21.63-26.73-13.86.46-29.86-1.74-43.46.1Z"/>
  <path class="st0" d="M176.08,585.52c-20.37,3.4-19.86,28.59-2.86,32.05,8.36,1.7,53.24,1.61,62.17.23,16.4-2.53,19.35-26.56,1.75-31.44-8.53-2.36-51.6-2.43-61.06-.85Z"/>
  <path class="st0" d="M176.08,585.52c9.46-1.58,52.53-1.51,61.06.85,17.6,4.88,14.65,28.91-1.75,31.44-8.94,1.38-53.81,1.47-62.17-.23-17.01-3.47-17.51-28.65,2.86-32.05Z"/>
</svg>