<?xml version="1.0" encoding="UTF-8"?>
<svg id="Capa_1" xmlns="http://www.w3.org/2000/svg" version="1.1" viewBox="0 0 432.52 432.52">
  <!-- Generator: Adobe Illustrator 30.0.0, SVG Export Plug-In . SVG Version: 2.1.1 Build 123)  -->
  <defs>
    <style>
      .st0 {
        fill: #fff;
      }
    </style>
  </defs>
  <path class="st0" d="M260.45,235.68l-6.05-3.21-19.02-8.25-69.68-48.89-8.41-3.09c-6.13,1.48-10.98,4.63-14.78,9.14-11.11,15.18-9.68,42.21-5.88,71.47.28,1.15.57,2.29.85,3.43,5.81,23.22,12.06,45.89,18.92,67.85,6.54,10.63,12.65,24.01,18.48,39.21,1.12,3.74,2.34,12.09,3.55,20.02l-12.08-25.83c.08,5.99.05,11.68-.06,17.14l-2.29-2.77c-2.2-2.53-4.89-10.64-7.7-20.19,1.05,13.66-.06,28.16-3.1,43.42l-7.21,25.72c22.03,7.57,45.67,11.68,70.27,11.68,73.74,0,138.86-36.91,177.9-93.26-20.76-17.89-41.99-36.26-63.64-55.02-22.9-12.77-46.18-28.44-70.07-48.56Z"/>
  <path class="st0" d="M143.1,17.7c.82.17,3.63-.61,4.77-.71,15.11-1.32,29.76,3.04,41.28,12.97,1.89,1.63,7.74,7.31,8.47,9.36.81,2.26-2.08,2.72-3.58,3.71-3.65,2.43-5.88,7.25-5.14,11.58.17.98.52,2.94,1.56,3.23,4.06-.55,8.33-3.37,12.3-4.22,1.08-.23,1.67-.04,2.55.57l4,10.85-.83,1.31-.58.21c17.07,10.61,28.24,26.99,30.23,44.01-4.18,7.46-8.39,12.71-12.66,12.3,3.92.47,7.04,4.3,9.72,10-.07.17-.14.34-.22.5,30,38.69,60.81,75.89,95.46,105.98,11.88,7.07,22.44,15.13,28.73,26.41l7.6,10.73,39.87,42.41c16.5-30.54,25.87-65.5,25.87-102.66C432.52,96.82,335.7,0,216.26,0c-27.65,0-54.09,5.19-78.39,14.65,1.01.2,2,.57,2.91,1.14.58.36,2.1,1.87,2.32,1.92Z"/>
  <path class="st0" d="M66.59,350.63c5.22-18.86,9.38-36.77,8.52-50.24l-4.86-47.89.49-11.25,1.71-39.7c1.1-16.3,5.03-33.46,11.05-51.26,5.77-17.07,11.42-32.87,16.64-43.8l-23.17,8.58c-3.29.9-5.55.11-7.79-2.38l-.9-2.44c-.11-2.01.5-4.31,2.04-5.7.19-.17,1.62-1.2,1.72-1.23l31.05-11.44c-.56-2.21-1.62-4.59-2.17-6.74-5.74-22.23,2.68-45.02,21.22-58.41,1.12-.81,4.41-2.46,4.8-3.41.31-.73.23-2.22.68-3.29.21-.51.47-.98.76-1.42C52.74,52.29,0,128.11,0,216.26c0,55.85,21.17,106.75,55.92,145.12,3.72-2.9,7.28-6.45,10.67-10.75Z"/>
</svg>