<?xml version="1.0" encoding="UTF-8"?>
<svg id="Capa_1" xmlns="http://www.w3.org/2000/svg" version="1.1" viewBox="0 0 843.01 839.85">
  <!-- Generator: Adobe Illustrator 30.0.0, SVG Export Plug-In . SVG Version: 2.1.1 Build 123)  -->
  <defs>
    <style>
      .st0 {
        fill: #fff;
      }
    </style>
  </defs>
  <path class="st0" d="M487.51,545.22h99.1l17.79-121.97h-116.89v-88.3c0-9.43,8.8-29.64,15.22-36.87,7.48-8.42,29.06-19.67,40.05-19.67h66.7v-104.19l-66.65-7.68c-66.29-4.7-132.66,10.63-166.34,72.63-31.35,57.71-15.26,121.56-21.12,184.07h-106.73v121.97h106.73l-.73,294.63C173.53,811.6,26.62,661.89,3.61,479.6-43.54,106.16,381.58-141.43,679.97,89.11c281.92,217.81,180.33,672-167.29,746.2-4.8,1.03-18.58,4.56-22.3,4.44-1.56-.05-1.97-.48-2.88-1.67v-292.86Z"/>
</svg>