<?xml version="1.0" encoding="UTF-8"?>
<svg id="Capa_1" xmlns="http://www.w3.org/2000/svg" version="1.1" viewBox="0 0 566.93 566.93">
  <!-- Generator: Adobe Illustrator 30.0.0, SVG Export Plug-In . SVG Version: 2.1.1 Build 123)  -->
  <defs>
    <style>
      .st0 {
        fill: #fff;
      }
    </style>
  </defs>
  <path class="st0" d="M134.36,241.09l-.59-1.14c.99-.69,10.95,5.52,13.25,6.06,7.15,1.65,15.37,4.15,21.73,8.24.72.46,1.66.94,1.9,1.84l-4.03-.57c-1.3.96,6.87,4.8,8.07,4.61l-2.3,1.14,9.21,3.75c-.9,1.27-1.06.73-2.12.41-1.72-.52-3.65-1.59-5.35-2.15-.56-.19-1.85-.79-1.74.3l8.06,2.9-1.15.85c.92,1.92,10.26,4.37,12.68,4.91l-.58,1.14,8.07,1.73c-31.91-1.38-62.8-9.96-92.79-20.16.58,4.11,1.54,7.99.58,12.1l1.14-1.72c.16,2.25-.9,4.39-.62,6.66.13,1.01,1.02.81,1.15,1.28,1.66,6.09.33,12.95,2.36,19.14-2.57-1.04-5.21-2.23-8.01-2.55-5.5-.61-4.69-.55-9.87-2.33-5.8-1.99-13.28-4.99-19-6.41-7.89-1.95-16.61-4.93-24.09-7.54-5.04-1.76-9.97-3.91-15.1-5.38l3.45-.56c-2.2-.79-4.94-1.46-7.04-2.35-.53-.22-.57-1.25-1.55-1.47-1.91-.44-5.89,1.07-6.97-2.24l1.17-1.43-18.44-5.2,1.85-.42c28.66,5.71,57.14,12.3,85.47,19.42l.63-1.18-4.36-20.49c.46-2.86,1.09-5.77-1.63-7.52l-3.58-16.9,50.15,13.25Z"/>
  <g>
    <path class="st0" d="M236.7,463.32c-9.89,10.9-18.37,18.92-29.43,27.91-.5.41-3.48,3.75-3.74,3.47l28.23-36.03-24.78-6.9c5.34-5.98,10.86-11.85,16.12-17.89,3.08-3.54,4.09-5.21,7.77-8.37,1.1-.94,2.64-3.18,3.21-3.69,2.1-1.88,4.59-3.52,6.62-5.5l-.87,2.3c.98.72,2.58-2.2,3.44-2.54.57-.23,1.67.26,2.77-.12,4.78-1.66,7.09-5.48,10.5-8.86l-6.21,10.21c-7.78,10.88-16.48,21.1-26.05,30.42l19.57,7.49c-2.03,1.24-2.73,3.7-4.01,5.2-.85.99-2.11,1.74-3.15,2.89Z"/>
    <path class="st0" d="M190.26,361.56l-2.88,2.3,7.5-.57-.58,1.14,7.5-1.14c-1.42,1.98-4.8,1.67-6.92,1.73.7,1.85,3.92.16,5.61.15.78,0,1.24.81,2.05.84,2.92.11,10.31-1.84,13.64-2.47.6-.11,1.89-.75,1.76.32-24.89,9.51-50.79,16.39-77.23,20.19l19.02,26.5c-3.47-.73-6.29,2.2-9.06,2.76-17.28,3.48-37.96,7.89-55.17,8.75-3.44.17-6.69,1.86-10.12,1.75l.58-1.14-13.83,2.29,22.35-6.75,49.12-12.85c-3.33-5.11-7.61-9.48-11.51-14.13-2.19-2.62-4.2-4.93-6.38-7.45-2.36-2.72-4.6-5.6-6.89-8.38l39.2-8.66-.58-1.14c1-.85,2.97.34,3.15.32.54-.05,1.2-.84,2.29-.94,1.6-.15,3.32.17,4.93.03l-1.72-1.14c1.4-.62,2.84,1.13,3.65,1.06.92-.08,1.84-1.51,3.02-1.65,1.81-.22,2.74,1.57,3.51-.56l14.02-1.15Z"/>
  </g>
  <path class="st0" d="M266.93,329.86l.78-6.53,1.5-3.01,2.34-25.04,1.14,3.45.86-7.5,2.6-10.36c-.47,6.43-1.85,12.88-2.29,19.31-1.49,21.56-.98,62.93,17.01,78.08,16.66,14.02,35.44-.76,46.68-13.81,8.75-10.15,15.27-21.97,21.03-34.01-9.06-2.93-17.07-8.52-25.94-11.83-1.81-.67-7.53-2.73-9.06-3.04-1.99-.41-4.32.27-6.09-.25-2.04-.59-5.62-3.62-6.72-5.51-1.6-2.75-2.37-5.67-2.91-8.78l2.3,1.72c.15-1.14-.25-2.58,0-3.65.11-.45,1.14-.37,1.16-.72.04-.84-1.03-2.49-.58-3.7,1.81.77,1.05,3.34,1.14,4.91.07,1.16-.44,1.66,1.15,1.42-.56-1.28-.95-3.48-.58-4.77.15-.53,1.21-.62,1.62-1.36.73-1.31.34-2.81.7-3.8.19-.54,2.81-2.28,2.3-4.47l1.86,13.98,1.95,3.85c2,.58,5.4-5.27,6.28-6.87,3.99-7.26,7.56-19.7,2.81-27.06-2.1.13-2.62,2.23-3.98,3.41l-.29-2.3-2.31,2.88-.85-1.15-1.45,2.88-.57-2.3-1.16,1.72-.85-1.15c-1.72,1.47-3.07,3.41-3.18,5.76l-1.14-1.72-1.73,4.03c-.79-9.93,7.69-24.15,18.73-23.06,9.55.95,19.49,2.14,29.02,3.73l15.64.31c-.31-3.74,1.13-8.09.96-11.73-.59-12.74-1.69-26.17-5.88-38.39-3.97-11.59-12.58-22.98-25.38-24.79-3.98-.56-8.55,2.65-12.59,2.25-.38,2.25-2.91,2.52-4.9,3.83-7.2,4.75-12.61,10.42-18.21,16.95-.61-1.48,2.15-3.16,2.59-4.33.35-.94-.36-1.16-1.16-.58-2.18,1.57-5.49,7.56-7.47,9.82l-.58-.87c-.66-.53-8.45,12.89-8.65,14.41-2.42-.92.95-3.03.58-4.61-1.34.25-1.19,2.14-1.89,2.72-.53.45-1.43.19-2.42,1.32-3.73,4.24-7.24,14.79-9.53,20.16l-1.14-1.14-6.93,19.3c6.22-28.23,19.36-58.48,41.81-77.5,16.68-14.14,38.7-18.12,54.44-.29,5.41,6.13,8.32,10.52,14.73,16.4,13.71,12.58,27.67,25.53,41.77,37.77,16.78,14.58,35.35,30.41,56.27,38.32,1.66.07,2.82-1.98,4.61-2.81s4.2-1.31,6.25-1.22c5.31.23,29.34,9.28,35.46,11.83,12.76,5.31,26.9,18.46,30.85,31.98,6.34,21.68-5.95,52.64-28.96,58.66-7.03,1.84-17.29-1.43-23.77-4.48l-6.1,15.53-38.64,55.32c-.78.19-12.38-6.73-14.01-7.78-1.88-1.21-5.22-3.17-6.7-4.25-3.45-2.52-8.26-7.39-6.74-11.97,1.28-3.86,6.72-12.02,8.92-16.49,2.68-5.45,5.36-11.36,7.64-16.51.54-1.21,2.08-5.44,2.52-5.99.58-.71,1.59-.29,2.37-.36l-1.16-3.16,1.15.29c.6-2.01-1.23-1.88-1.76-2.71s-1.33-3.63.61-3.06l.57,1.15c1.09-2.46-3.76-8.71-5.53-9.73-2.84-1.64-7.12.39-10.29.53-2.03.09-5.81-.8-6.83-.61-.38.07-.36.96-.84,1.12-3.19,1.07-8.34.74-11.88,1.27-6.04.9-12.62,2.65-18.58,3.32-.68.08-3.09.59-3.1-.5l8.06-1.74c.15-.92-.8-.61-1.42-.57-9.89.7-20.77,2.79-30.56,4.62l.12-1.04,7.08-1.84-7.19,1.15.29-1.16c-1.46-1.01-20.07,3.42-23.42,3.96-1.95.32-4.04-.08-6.12.22-6.78.95-8.74,5.04-13.74,8.74-10.6,7.83-20.03,12.49-33.98,9.88-3.83-.72-15.24-7.93-17.61-11.27-3.97-5.6-7.5-10.54-10.31-17.88-2.18-5.7-3.52-11.64-4.92-17.56l1.15.07,1.73,5.4-1.72-15.56,1.17.28c-.9-5.63-1.41-11.28-1.17-16.99.37-.04,1.15.77,1.15.86v8.36ZM384.31,210.17c-1.58-1.56-3.9-3.19-5.56-4.81,13.17,34.82,8.05,77.02-4.02,111.55-8.09,23.15-16.37,37.13-31.44,56.17-.46.58-1.11.74-.85,1.73,23.75-6.77,47.99-12.47,72.51-15.96,20.73-2.95,41.69-4.7,62.47-1.15,4.51.77,16,4.61,19.19,4.47,5.29-.23,14.39-9.03,17.25-13.35,8.98-13.57,9.15-31.89,2-46.28-.62-1.25-3.41-5.97-4.21-6.74-1.05-1.01-7.43-3.36-9.25-4.01-1.88-.67-9.91-3.58-11.17-2.79l-2.78,5.04c-2.61,0-5.28-.66-7.8-1.25-11.5-2.7-18.95-8.31-28.9-13.75-2.23-1.22-2.28-2.68-3.07-3.39-3.13-2.81-8.43-4.49-11.7-7.8-.55-.56-.12-1.51-.82-2.03-.73-.55-3.35-1.43-5.22-2.84-7.33-5.54-14.42-12.89-21.34-19.01-.53-1.41.73-.37,1.16,0,1.34,1.12,2.52,2.51,4.03,3.46.43.09.39-.6.28-.85-1.25-2.79-8.93-7.49-10.94-10.39l1.15-.57c-.2-.53-7.84-7.55-8.36-7.78-.25-.11-.95-.15-.85.28l2.88,2.89c.09.43-.6.39-.85.28-1.7-.76-5.26-5.93-7.21-7.2,2.94-2.36,4.85,1.74,6.91,3.47.46.38,1.16,1.51,1.73.57-.84-.73-1.24-1.83-1.99-2.62-4.54-4.83-8.36-10.55-13.19-15.34ZM375.28,274.53l-33.42-2.89c.24,2.87.7,5.44.59,8.38-.25,7.06-3.62,17.51-6.83,23.71-.58,1.13-3,3.1-2.17,4.24,6.53,2.45,12.5,6.2,18.98,8.76.85.33,1.66.03,2.16.21.9.33,5.4,2.03,5.7,2.26,1.12.85-.18.79-.33,1.72-.02.15.82,2.64,1.48,2.59,6.72-15.68,10.31-32.35,13.84-48.99ZM507.28,366.16c9.6,3.62,20.27,8.2,29.4.88,14.16-11.35,18.92-34.57,9.31-50.25-2.35-3.83-14.19-14.34-18.41-16.17-.48-.21-4.04-1.37-3.58.12.68,2.19,3.43,5.93,4.47,8.79,3.33,9.16,2.89,17.78,1.28,27.24l-1.14-1.72c-.82,1.6.04,3.49-.13,4.76-.43,3.27-7.23,15.43-9.66,18.02-.83.89-4.03,2.28-4.45,2.73s-.18,1.32-1.1,2.1c-1.01.87-3.89,1.64-5.19,2.31-.6.31-1.09-.3-.82,1.2ZM505.55,375.98c-9.2-2.52-19.13-6.8-28.6-8.01-2.08-.27-4.23.15-6.26-.08-6.22-.7-12.51-2.26-18.74-1.14,7.18,5.71,15.4,11.16,12.13,21.64-3.68,11.82-13.36,24.38-18.23,35.98-.3.61-.36,1.13.02,1.73s10.76,7.34,11.87,7.78c2.2.86,2.42-1.32,3.52-2.81,5.65-7.66,10.95-16.53,16.41-24.48.65-.95,1.2-3.2,1.45-3.43.11-.1.92.49,1.34-.07.61-.82.79-2.85,1.43-3.74.33-.46.49,0,1.82-2.23.49-.81,6.4-9.61,6.85-9.06l-.86,3.46,3.75-4.9.86.87,4.04-4.61c.14-.06.45,2.17,2.48,1.02.41-.23,5.08-7.43,4.72-7.93Z"/>
  <g>
    <path class="st0" d="M174.31,136.37c1.65-2.41,1.97-3.27,3.37-5.56,1.84-3.03,3.87-6.4,6.24-9.02l6.72,12.68c5.07,5.68,8.04,13.95,12.39,20.38.68,1,1.94,1.2,2.49,2.12.81,1.38,1.37,4.97,2.1,6.42.39.78,2.08,1.62,2.13,1.75.22.59-.58,1.34-.21,2.17.35.78,2.05,1.55,2.38,2.87.47,1.84-1.67,1.99,1.41,2.71l5.16,12.02-2.88-1.16,2.89,6.35-1.11,1.06,2.82,5.28c-.45,2.45-2.01-3.11-2.87-2.6.88,1.51.65,3.62,1.1,4.9,1.56,4.5,4.82,8.46,6.38,12.97-17.49-19.83-30.72-42.93-42.93-66.27-2.93,4.56-6.91,8.68-10.06,12.96-2,2.72-3.41,5.25-5.69,8.14-.74.94-2.93,5.52-4.13,4.82.56-3.01-3.12-5.12-4.53-7.29-2.98-4.6-5.8-11.65-8.64-16.73-6.03-10.79-12.79-21.09-16.65-32.86-.74-2.27-4.19-6.42-4.55-7.66-.35-1.22.43-2.15.12-3.47-.63-2.67-4.41-6.27-4.95-9.22l40.05,59.93c1.14,0,9.93-15.51,11.42-17.68Z"/>
    <path class="st0" d="M252.52,117.75l19.58-16.71c2.3,8.08,4.46,16.19,6.49,24.35,1.15,4.63,2.41,10.19,3.31,14.07.62,2.69.28,6.57,1.15,9.42l-1.72-1.73c.16,3.21-.97,6.17.57,9.21l-1.72-1.72c-1.18,3.88.95,7.63,1.14,11.52l-5.61-12.54c-4.01-11.68-7.69-23.59-9.37-35.88l-17.86,12.1c.95-2.27-1.1-4.25-1.58-6.19-2.97-11.92-5.31-24.42-6.76-36.47-.29-2.41-2.43-6.64-.29-7.22l-1.46-7.75,14.13,45.54Z"/>
  </g>
</svg>