<?xml version="1.0" encoding="UTF-8"?>
<svg id="Capa_1" xmlns="http://www.w3.org/2000/svg" version="1.1" viewBox="0 0 574.66 575.44">
  <!-- Generator: Adobe Illustrator 30.0.0, SVG Export Plug-In . SVG Version: 2.1.1 Build 123)  -->
  <defs>
    <style>
      .st0 {
        fill: #fff;
      }
    </style>
  </defs>
  <path class="st0" d="M154.1,2.76c89.75-7.56,190.72,2.94,281.22,1.6,73.18,13.25,129.8,73.98,137.28,148.23-4.77,88.1,6.46,183.05,0,270.35-5.73,77.43-73.11,144.18-150.32,150.3-86.89,6.89-182.53-5.08-270.34,0C67.73,564.04,6.57,496.93,1.54,412.95c-4.92-82.24,3.89-169.31,0-252.06C6.64,77.97,70.85,9.78,154.1,2.76ZM149.03,48.07c-52.47,8.08-93.04,49.36-101.6,101.61,4.91,88-8.18,186.43-.44,273.25,4.94,55.45,56.93,102.65,111.68,106.64,83.18-4.49,172.8,6.1,255.23,0,61.91-4.58,109.54-51.69,115.04-113.36-4.49-83.18,6.09-172.8,0-255.23-4.28-57.84-46.25-103.98-103.47-113.18l-276.44.26Z"/>
  <path class="st0" d="M441.32,288.04c0,84.94-68.86,153.79-153.79,153.79s-153.79-68.86-153.79-153.79,68.86-153.79,153.79-153.79,153.79,68.86,153.79,153.79ZM397.11,287.98c0-60.54-49.07-109.61-109.61-109.61s-109.61,49.07-109.61,109.61,49.07,109.61,109.61,109.61,109.61-49.07,109.61-109.61Z"/>
  <circle class="st0" cx="452.15" cy="123.28" r="33.11"/>
</svg>