<?xml version="1.0" encoding="UTF-8"?>
<svg id="Capa_1" xmlns="http://www.w3.org/2000/svg" version="1.1" viewBox="0 0 650.39 739.49">
  <!-- Generator: Adobe Illustrator 30.0.0, SVG Export Plug-In . SVG Version: 2.1.1 Build 123)  -->
  <defs>
    <style>
      .st0 {
        fill: #fff;
      }
    </style>
  </defs>
  <path class="st0" d="M462.76,2.67c-.01,40.67,11.48,80.95,33.73,114.91,33.66,51.38,90.28,67.31,149.48,66.72l3.28,2.13,1.14,125.47c-.77,1.11-2.1.93-3.26,1.06-15.44,1.85-40.42-.23-56.12-2.35-43.79-5.92-86.62-21.7-124.46-44.16-3.32,2.58-.61,6.6-.49,10.2,2.31,70.13,1.07,140.7,3.24,210.79,2.77,89.59-33.97,170.18-111.47,217.24C190.83,806.08-18.7,672.35,1.34,478.97c13.54-130.69,137.59-227.4,267.94-206.6l1.63,1.61,1.61,122.16c-43.77-12.62-90.25-2.17-121.09,31.86-88.55,97.72,35.65,243.16,146.31,171.17,78.7-51.19,39.52-149.42,48.34-227.4-1.22-68.3-2.59-136.99-3.33-205.3-.59-54.81-.67-109.41-.89-164.2.36-1.4,1.32-1.55,2.55-1.77,5.48-1.01,18.58-.2,24.92-.05,3.08.07,5.74,1.13,8.55,1.18,28.27.44,56.77-1.26,84.89,1.05Z"/>
</svg>