<?xml version="1.0" encoding="UTF-8"?>
<svg id="Capa_1" xmlns="http://www.w3.org/2000/svg" version="1.1" viewBox="0 0 566.93 566.93">
  <!-- Generator: Adobe Illustrator 30.0.0, SVG Export Plug-In . SVG Version: 2.1.1 Build 123)  -->
  <defs>
    <style>
      .st0 {
        fill: #fff;
      }
    </style>
  </defs>
  <g>
    <path d="M234.67,350.37c33.68-2.99,96.96-3.16,128.42,6.9,52.23,16.71,93.08,62.1,104.29,115.87,7.38,35.39,8.4,59.37-31.7,67.86-87.07,18.42-218.69,18.54-305.69-.19-32.27-6.95-37.24-22.74-33.25-54.05,8.87-69.78,66.88-130.09,137.94-136.39Z"/>
    <circle cx="283.31" cy="204.56" r="127.94"/>
  </g>
  <path class="st0" d="M328.38,21.11c-.18-2.18-1.25-4.31-3.08-5.55s-9.67-2.68-11.93-2.45c-2.56.26-4.61,2.05-5.86,4.2l20.87,3.8ZM346.85,163.24c.46-4.08,1.22-8.16,1.61-12.25,1.65-17.26,1.41-38.16-.85-55.35-3.53-26.76-16.23-51.98-32.47-73.12-46.58-5.6-93.61,9.43-116.9,52.12-6.81,12.49-12.36,26.37-16.39,40.02,8.72-3.12,16.49-5.48,25.91-5.24,23.8.61,43.17,9.81,64.29,19.22,25.09,11.18,49.82,23.2,74.81,34.6ZM405.87,190.14c10.04-33.36,13.48-69.98-1.26-102.53-14.76-32.6-45.03-54.88-79.44-63.29l9.7,15.39c20.87,34.34,24.01,75.56,20,114.9-.4,3.93-1.29,7.84-1.54,11.79,18.01,6.71,35.57,14.74,52.53,23.75ZM351.27,170.07c-22.07-10.01-43.9-20.58-65.97-30.59-23.77-10.78-49.38-24.51-75.94-25.64-9.7-.41-15.59,1.51-24.52,4.43-14,4.58-27.84,9.98-41.14,16.27,23.48-1.59,42.44,9.86,59.61,24.3,23.93,20.12,49.14,55.4,84.93,45.96,11.37-3,21.38-9.35,31.44-15.13l31.6-19.59Z"/>
  <g>
    <path d="M328.2,20.12l-20.86-3.8c1.25-2.15,3.3-3.94,5.86-4.2,2.26-.23,10.07,1.2,11.92,2.45,1.83,1.24,2.9,3.36,3.07,5.55Z"/>
    <path d="M346.65,162.16c-24.97-11.39-49.68-23.41-74.75-34.58-21.11-9.4-40.47-18.6-64.25-19.21-9.41-.24-17.18,2.12-25.9,5.23,4.03-13.63,9.57-27.51,16.38-39.99,23.28-42.67,70.28-57.69,116.82-52.09,16.23,21.13,28.93,46.33,32.45,73.07,2.26,17.18,2.5,38.07.85,55.32-.39,4.08-1.15,8.17-1.61,12.24Z"/>
    <path d="M405.63,189.04c-16.95-9-34.5-17.02-52.5-23.73.26-3.94,1.14-7.85,1.54-11.78,4-39.31.87-80.5-19.99-114.81l-9.69-15.38c34.38,8.41,64.63,30.67,79.38,63.25,14.72,32.52,11.28,69.12,1.26,102.46Z"/>
    <path d="M351.07,168.98l-31.57,19.57c-10.06,5.78-20.06,12.13-31.42,15.12-35.77,9.43-60.95-25.83-84.87-45.93-17.16-14.43-36.1-25.87-59.57-24.28,13.3-6.28,27.12-11.68,41.12-16.26,8.91-2.92,14.81-4.83,24.5-4.42,26.55,1.13,52.13,14.85,75.89,25.62,22.06,10,43.87,20.56,65.93,30.57Z"/>
    <path d="M190.18,158.55c.16.58-.16.67-.39,1.01-1.23,1.77-4.23,4.92-5.82,6.62-11.49,12.26-28.98,24.38-44.47,30.96-8.4,3.57-13.48,3.61-19.52-3.89-9.66-12.01-2.11-35.75,9.49-44.25,18.88-13.82,44.08-2.49,60.71,9.56Z"/>
  </g>
</svg>